<?xml version="1.0" standalone="no"?>
<!DOCTYPE svg PUBLIC "-//W3C//DTD SVG 20010904//EN"
 "http://www.w3.org/TR/2001/REC-SVG-20010904/DTD/svg10.dtd">
<svg version="1.0" xmlns="http://www.w3.org/2000/svg"
 width="1800.000000pt" height="1013.000000pt" viewBox="0 0 1800.000000 1013.000000"
 preserveAspectRatio="xMidYMid meet">

<g transform="translate(0.000000,1013.000000) scale(0.100000,-0.100000)"
fill="#000000" stroke="none">
<path d="M9487 7964 c-15 -8 -25 -20 -21 -25 4 -6 16 -2 30 12 35 33 33 36 -9
13z"/>
<path d="M9290 7860 c-47 -33 -105 -74 -129 -91 l-44 -31 21 -20 20 -20 118
82 c65 45 124 84 131 87 9 4 8 11 -5 29 -9 13 -19 23 -22 23 -3 0 -43 -27 -90
-59z m27 -3 c0 -8 -6 -14 -14 -14 -9 0 -10 4 -2 14 6 7 12 13 14 13 1 0 2 -6
2 -13z m43 -11 c0 -2 -7 -7 -16 -10 -8 -3 -12 -2 -9 4 6 10 25 14 25 6z m-77
-23 c-12 -2 -27 -11 -33 -19 -7 -8 -17 -14 -22 -14 -6 0 0 9 13 20 13 10 33
19 44 18 18 -1 18 -1 -2 -5z m-36 -51 c-17 -18 -51 -27 -41 -10 3 5 9 6 14 3
4 -3 13 2 20 10 7 8 15 15 18 15 3 0 -2 -8 -11 -18z"/>
<path d="M10922 7760 c0 -14 2 -19 5 -12 2 6 2 18 0 25 -3 6 -5 1 -5 -13z"/>
<path d="M10748 7583 c7 -3 16 -2 19 1 4 3 -2 6 -13 5 -11 0 -14 -3 -6 -6z"/>
<path d="M11858 7043 c12 -2 32 -2 45 0 12 2 2 4 -23 4 -25 0 -35 -2 -22 -4z"/>
<path d="M12665 6910 c-45 -11 -175 -70 -175 -80 0 -4 15 -20 33 -37 104 -97
337 -370 337 -395 0 -28 13 7 37 103 35 140 39 303 7 346 -40 54 -150 83 -239
63z"/>
<path d="M2873 6863 c9 -2 25 -2 35 0 9 3 1 5 -18 5 -19 0 -27 -2 -17 -5z"/>
<path d="M2998 6853 c7 -3 16 -2 19 1 4 3 -2 6 -13 5 -11 0 -14 -3 -6 -6z"/>
<path d="M12242 6624 c-192 -194 -392 -455 -567 -742 -21 -34 -39 -61 -41 -59
-2 2 6 48 17 102 16 76 20 127 17 215 -3 104 -6 120 -32 167 -37 67 -86 93
-172 93 -270 -1 -466 -414 -549 -1160 -8 -74 -15 -144 -16 -155 0 -11 -9 19
-19 66 -30 146 -79 233 -150 269 -47 24 -70 25 -140 4 -73 -22 -153 -99 -213
-206 -47 -83 -47 -83 -47 -178 l0 -96 58 -31 c31 -17 163 -91 292 -164 129
-72 294 -166 367 -206 73 -41 144 -88 157 -104 32 -38 38 -37 34 9 -3 34 -6
37 -38 42 -49 7 -81 72 -82 167 -2 97 8 186 21 211 16 31 80 29 151 -4 141
-65 169 -167 79 -283 -11 -13 -19 -35 -19 -48 0 -36 50 -103 83 -110 37 -8 84
-63 91 -110 4 -21 17 -144 31 -273 26 -244 36 -293 120 -546 34 -101 35 -108
19 -132 -9 -13 -26 -61 -39 -106 -13 -44 -51 -153 -85 -241 -34 -88 -75 -199
-92 -246 l-31 -85 59 -80 c32 -44 66 -90 74 -102 15 -23 16 -23 85 -8 39 9 79
18 90 21 15 4 59 -26 168 -114 81 -65 185 -147 232 -182 46 -35 84 -67 85 -71
0 -5 -89 -8 -199 -8 l-198 0 4 -24 c4 -18 -1 -25 -19 -29 -51 -14 -87 -7 -121
23 l-35 30 -378 1 c-373 1 -377 2 -264 15 222 26 346 63 399 118 l33 34 -54
48 c-135 124 -228 219 -242 249 -19 38 -15 82 35 468 l30 238 -27 27 c-15 15
-38 44 -53 66 -28 43 -31 75 -47 468 l-7 186 -26 -5 c-14 -3 -62 -6 -107 -7
-77 -1 -83 1 -135 35 -87 58 -296 279 -284 300 3 4 -9 19 -26 33 -24 20 -41
26 -79 26 -55 0 -78 16 -87 61 -3 16 -10 32 -14 35 -5 3 -9 -294 -9 -680 l0
-686 89 0 89 0 7 -71 c4 -39 4 -132 0 -205 l-7 -134 -153 0 -153 0 1 -184 2
-184 86 -4 c108 -5 178 -40 222 -111 29 -45 50 -114 41 -129 -3 -4 -687 -8
-1520 -8 l-1515 0 3 -27 3 -28 2045 -2 c1125 -2 2052 -4 2060 -5 8 -2 -17 -19
-55 -38 -38 -19 -68 -39 -67 -45 1 -5 15 -13 30 -18 46 -12 275 -20 312 -10
32 9 35 12 32 44 -1 19 -4 43 -7 54 -4 19 1 20 180 20 102 0 185 -2 185 -5 0
-3 -28 -18 -62 -35 -34 -16 -63 -35 -65 -42 -7 -22 70 -33 226 -33 l154 0 -7
55 -6 55 1894 0 c1664 0 1895 2 1906 15 7 8 10 22 6 30 -5 13 -221 15 -1923
15 l-1918 1 -255 316 c-289 358 -276 341 -295 387 l-15 35 73 52 c91 66 178
154 202 205 23 50 24 119 1 142 -13 13 -33 17 -91 16 -41 -1 -75 2 -75 7 0 5
4 9 9 9 12 0 173 125 245 191 129 118 232 292 243 411 5 60 3 73 -22 124 -31
63 -83 103 -172 131 -29 9 -53 20 -53 24 0 4 32 36 72 70 163 145 448 468 567
644 186 272 225 447 134 586 -36 55 -91 81 -173 81 -86 0 -159 -21 -271 -78
l-88 -44 51 108 c113 242 207 462 269 634 l38 107 -77 88 c-42 48 -143 155
-224 237 l-149 148 -147 -148z m208 -4518 c0 -16 -21 -26 -55 -26 -66 0 -73
28 -7 33 26 2 50 4 55 5 4 1 7 -4 7 -12z"/>
<path d="M13490 6463 c0 -5 -16 -82 -35 -173 -20 -91 -51 -239 -70 -329 -20
-91 -32 -168 -28 -171 18 -16 360 -106 368 -98 3 2 7 20 9 39 3 19 12 66 21
104 9 39 34 156 56 260 22 105 47 219 54 255 8 35 13 65 12 66 -5 3 -348 54
-367 54 -11 0 -20 -3 -20 -7z"/>
<path d="M4900 6393 c-41 -36 -41 -36 -95 -26 -31 5 -57 8 -59 6 -2 -3 6 -28
19 -57 l23 -52 -29 -47 c-16 -26 -29 -50 -29 -53 0 -4 27 -4 60 -1 l60 7 36
-40 c51 -56 54 -54 68 30 5 32 13 39 63 64 l57 28 -35 20 c-19 12 -44 27 -56
35 -19 11 -23 22 -23 68 0 30 -4 55 -10 55 -5 0 -28 -16 -50 -37z"/>
<path d="M9846 6324 c-9 -8 -13 -21 -9 -27 3 -7 3 -9 -2 -5 -8 8 -77 -98 -78
-119 0 -7 -5 -13 -11 -13 -6 0 8 -12 32 -26 24 -14 45 -24 46 -22 2 1 18 27
36 56 17 28 34 52 36 52 3 0 22 -9 43 -20 21 -10 42 -16 46 -12 5 4 5 2 2 -4
-3 -6 9 -18 29 -27 41 -20 48 -21 38 -5 -4 7 -3 8 5 4 6 -4 9 -11 6 -16 -3 -5
17 -21 45 -35 59 -30 59 -34 26 -142 -14 -43 -38 -125 -54 -183 -17 -58 -62
-215 -102 -350 -121 -413 -130 -444 -125 -460 6 -18 169 -111 187 -106 7 1 9
1 5 -2 -8 -4 21 -31 34 -32 3 0 16 19 28 41 19 34 21 43 10 50 -8 5 -20 7 -27
4 -8 -3 -10 0 -6 7 5 8 2 9 -10 5 -10 -4 -15 -3 -11 3 9 14 -8 12 -25 -2 -12
-11 -12 -10 -2 4 11 14 7 19 -29 40 -23 12 -46 33 -50 46 -5 13 -5 21 -1 18
11 -6 86 250 86 292 0 22 2 29 9 20 6 -9 7 -6 4 10 -3 12 -1 20 3 17 5 -3 11
9 15 27 4 18 15 62 26 96 10 35 17 76 14 90 -4 21 -3 22 3 8 7 -16 11 -11 21
27 7 25 10 51 6 58 -5 7 -4 10 2 6 6 -4 16 13 23 41 6 26 31 114 56 195 24 82
44 157 44 168 0 11 -16 29 -37 42 -91 57 -345 197 -357 197 -8 0 -22 -7 -30
-16z m94 -29 c7 -8 8 -15 2 -15 -5 0 -15 7 -22 15 -7 8 -8 15 -2 15 5 0 15 -7
22 -15z m-123 -53 c0 -10 -6 -19 -13 -19 -9 0 -9 5 -1 19 7 10 13 18 14 18 1
0 1 -8 0 -18z m233 -10 c7 -8 7 -9 -1 -3 -6 5 -17 7 -24 5 -7 -3 -15 -1 -19 4
-8 13 33 8 44 -6z m-120 -2 c0 -5 8 -10 18 -11 9 0 12 -3 5 -5 -6 -3 -24 2
-40 10 -26 14 -27 15 -5 16 12 0 22 -4 22 -10z m-148 -43 c-7 -8 -8 -18 -4
-22 4 -5 1 -5 -5 -1 -10 5 -10 11 -1 26 7 11 14 17 17 15 2 -3 -1 -11 -7 -18z
m313 -27 c3 -6 -1 -7 -9 -4 -18 7 -21 14 -7 14 6 0 13 -4 16 -10z m119 -13
c16 -12 16 -13 -3 -13 -11 0 -17 5 -14 10 4 5 -1 7 -11 3 -10 -4 -15 -3 -11 3
8 13 18 13 39 -3z m-14 -267 c0 -5 -5 -10 -11 -10 -5 0 -7 5 -4 10 3 6 8 10
11 10 2 0 4 -4 4 -10z m-140 -251 c-12 -41 -24 -53 -14 -14 7 32 13 45 19 45
2 0 0 -14 -5 -31z m-39 -346 c-8 -15 -10 -15 -11 -2 0 17 10 32 18 25 2 -3 -1
-13 -7 -23z m-131 -243 c0 -11 -4 -20 -9 -20 -5 0 -7 9 -4 20 3 11 7 20 9 20
2 0 4 -9 4 -20z m24 -61 c-3 -5 -10 -7 -15 -3 -5 3 -7 10 -3 15 3 5 10 7 15 3
5 -3 7 -10 3 -15z"/>
<path d="M12991 6319 c-47 -51 -48 -169 -1 -169 44 0 79 139 44 174 -20 20
-19 20 -43 -5z"/>
<path d="M14890 6256 c0 -2 -16 -75 -36 -163 -29 -128 -34 -169 -28 -217 4
-37 9 -54 15 -45 17 29 19 -2 5 -82 -15 -87 -30 -246 -21 -238 4 5 30 125 116
532 21 104 41 192 44 197 2 4 -12 10 -33 14 -43 7 -62 8 -62 2z"/>
<path d="M2023 5960 c0 -41 2 -58 4 -37 2 20 2 54 0 75 -2 20 -4 3 -4 -38z"/>
<path d="M2031 5824 c0 -11 3 -14 6 -6 3 7 2 16 -1 19 -3 4 -6 -2 -5 -13z"/>
<path d="M5575 5736 c-18 -13 -19 -33 -20 -409 l0 -395 25 -27 c74 -79 185
-71 241 17 28 47 22 98 -40 328 -29 107 -68 256 -87 330 -42 161 -67 194 -119
156z"/>
<path d="M6789 5696 c-21 -14 -47 -41 -59 -61 -12 -19 -34 -48 -50 -63 -47
-47 -63 -141 -36 -205 17 -41 51 -72 101 -92 22 -9 55 -31 73 -48 l32 -31 0
26 c0 37 -14 68 -44 101 -16 18 -26 39 -26 59 0 26 3 30 21 25 21 -6 21 -3 16
50 -5 50 -3 60 20 90 15 19 39 41 55 49 52 27 28 105 -37 118 -22 5 -39 0 -66
-18z"/>
<path d="M14110 5238 c-50 -14 -70 -36 -70 -74 0 -53 33 -68 127 -60 91 7 104
0 96 -52 -6 -33 -5 -36 10 -24 22 18 37 7 37 -27 0 -29 -21 -57 -33 -44 -4 3
-7 0 -7 -8 0 -8 -3 -25 -7 -39 l-6 -25 33 30 c18 17 50 57 71 89 32 48 39 68
39 107 0 55 -33 103 -87 125 -37 16 -151 17 -203 2z"/>
<path d="M7060 5113 c-292 -18 -384 -57 -419 -175 -25 -81 16 -275 87 -418 22
-44 31 -55 49 -53 19 2 25 -5 38 -55 9 -31 19 -64 22 -72 3 -8 9 -136 14 -285
4 -148 13 -319 19 -380 19 -192 17 -801 -2 -1035 -10 -113 -23 -269 -29 -347
l-12 -143 -83 0 -84 0 0 305 0 305 -60 0 c-75 0 -122 22 -144 67 -13 28 -16
74 -16 286 l0 252 -440 -3 -440 -2 2 -303 3 -302 270 -17 c332 -22 365 -28
399 -73 14 -18 27 -50 28 -69 l3 -36 53 0 52 0 0 70 0 70 41 0 41 0 -6 -92
c-3 -51 -9 -191 -12 -310 l-6 -218 202 0 203 0 -5 -44 c-5 -42 -4 -44 25 -50
16 -3 50 -6 74 -6 40 0 45 2 40 20 -3 12 -1 18 5 14 7 -5 9 4 6 24 -2 17 -1
29 4 26 4 -3 8 0 8 5 0 7 56 11 165 11 l165 0 0 30 0 30 -166 0 c-132 0 -164
3 -156 13 5 6 18 60 28 119 21 124 13 118 168 118 l91 0 -20 185 -19 185 -62
0 -61 0 17 88 c22 108 33 233 20 212 -7 -11 -9 -7 -8 15 2 33 -45 211 -66 254
-7 14 -23 66 -36 115 -12 49 -26 97 -30 105 -5 9 -22 59 -39 113 -17 53 -36
111 -44 130 l-14 34 196 -1 c167 0 204 3 251 19 104 36 104 35 96 151 -13 205
-43 424 -73 527 l-16 57 34 28 c19 15 54 47 79 69 l44 42 -19 36 c-59 109
-215 283 -295 328 -48 27 -88 35 -160 31z m-163 -1715 c-2 -35 -3 -9 -3 57 0
66 1 94 3 63 2 -32 2 -86 0 -120z m-470 -410 c-1 -51 -3 -12 -3 87 0 99 2 141
3 93 2 -48 2 -129 0 -180z m720 -40 c-2 -13 -4 -3 -4 22 0 25 2 35 4 23 2 -13
2 -33 0 -45z m-250 -115 c-3 -10 -5 -2 -5 17 0 19 2 27 5 18 2 -10 2 -26 0
-35z m-440 -400 c-2 -21 -4 -6 -4 32 0 39 2 55 4 38 2 -18 2 -50 0 -70z m400
-165 c-3 -8 -6 -5 -6 6 -1 11 2 17 5 13 3 -3 4 -12 1 -19z"/>
<path d="M13830 4884 c-27 -42 -47 -81 -43 -88 4 -6 30 -40 59 -76 28 -36 57
-76 64 -89 15 -29 15 -330 1 -531 -5 -68 -7 -130 -4 -137 3 -7 -1 -13 -8 -13
-35 0 -690 -315 -726 -348 -40 -39 -42 -244 -8 -592 21 -205 17 -194 71 -185
25 3 62 12 82 19 l37 13 12 189 c7 104 16 234 20 289 l8 100 133 26 c73 14
134 28 136 30 2 2 17 20 33 40 15 19 56 67 89 105 34 38 99 112 145 164 95
109 88 107 219 67 114 -34 202 -50 210 -37 3 6 14 90 24 188 45 458 58 557 74
583 10 15 40 60 68 100 28 41 59 89 68 108 l18 33 -51 48 c-28 26 -64 53 -81
60 -30 13 -32 12 -103 -57 -40 -38 -84 -78 -100 -88 -15 -9 -30 -28 -33 -41
-6 -25 -60 -64 -87 -64 -20 0 -39 34 -35 63 2 17 -10 30 -57 61 -33 21 -85 61
-116 87 -31 27 -60 49 -63 49 -4 0 -29 -34 -56 -76z"/>
<path d="M5711 4814 c0 -11 3 -14 6 -6 3 7 2 16 -1 19 -3 4 -6 -2 -5 -13z"/>
<path d="M8533 4793 c9 -2 23 -2 30 0 6 3 -1 5 -18 5 -16 0 -22 -2 -12 -5z"/>
<path d="M5770 4713 c19 -10 38 -22 41 -26 4 -5 12 -57 19 -115 6 -59 14 -117
17 -129 4 -17 0 -22 -19 -25 -14 -2 -22 -9 -19 -18 5 -21 30 -299 30 -335 0
-28 -1 -28 -9 -8 -5 13 -12 46 -16 74 -6 48 -8 51 -33 46 -14 -3 -64 -11 -110
-18 -49 -8 -85 -18 -88 -26 -3 -7 13 -111 36 -230 22 -120 46 -251 53 -292
l11 -74 154 5 c85 3 156 7 158 9 9 10 -29 572 -49 714 l-22 160 -30 0 -29 0
-19 137 c-18 131 -20 138 -45 147 -56 20 -65 21 -31 4z"/>
<path d="M4171 4523 c-12 -10 -34 -43 -49 -73 -24 -47 -33 -55 -60 -58 -18 -2
-62 7 -98 19 -61 21 -70 21 -107 8 -76 -26 -107 -108 -71 -185 14 -30 14 -35
0 -56 -37 -53 -11 -139 52 -172 15 -8 46 -32 70 -55 71 -68 181 -90 243 -48
28 18 39 36 62 106 40 123 64 141 141 105 63 -31 138 1 152 63 12 55 13 57 31
42 15 -13 15 -12 4 9 -6 12 -16 22 -21 22 -37 0 -55 78 -20 87 13 4 20 14 20
30 0 60 70 123 137 123 43 0 89 -34 112 -82 l21 -43 -4 42 c-10 101 -112 160
-209 119 -44 -18 -95 -78 -103 -121 -3 -19 -10 -35 -14 -35 -5 0 -31 26 -59
57 -94 105 -177 140 -230 96z"/>
<path d="M5635 4395 c-60 -12 -103 -23 -95 -24 21 -1 210 36 217 43 9 8 3 7
-122 -19z"/>
<path d="M5653 4281 c-73 -14 -120 -32 -82 -30 29 1 200 36 206 42 10 10 -34
6 -124 -12z"/>
<path d="M5475 3647 c-2 -6 -30 -95 -60 -197 -101 -332 -113 -365 -128 -368
-8 -2 -125 10 -258 27 -389 47 -369 46 -369 25 0 -9 7 -26 17 -36 9 -10 14
-20 12 -22 -2 -2 -80 2 -174 9 -93 7 -174 10 -178 6 -4 -5 -11 -40 -14 -80 -7
-80 10 -132 51 -163 27 -20 139 -34 391 -48 105 -6 213 -13 240 -16 l51 -5 -7
-72 c-7 -69 3 -377 17 -520 5 -54 10 -67 21 -63 8 4 43 6 77 6 l62 0 14 123
c7 67 12 138 11 157 -3 52 9 33 83 -130 37 -79 70 -148 74 -152 4 -4 34 9 66
28 l58 37 -6 41 c-11 70 -124 451 -171 576 -52 141 -71 179 -91 187 -29 11
-13 23 25 17 l38 -6 42 133 c22 74 62 198 87 276 54 167 64 227 40 236 -9 4
-19 1 -21 -6z"/>
<path d="M3366 3414 c-42 -41 -30 -127 37 -268 l45 -94 -38 5 c-46 6 -75 -8
-96 -49 -13 -25 -14 -38 -4 -77 13 -54 88 -168 173 -264 33 -37 57 -70 53 -74
-3 -4 -43 -6 -89 -6 -45 0 -88 -4 -94 -9 -20 -16 -15 -49 10 -76 20 -23 20
-25 2 -18 -41 15 -169 17 -195 4 -29 -16 -37 -43 -19 -64 14 -17 120 -67 179
-85 22 -7 40 -14 40 -16 0 -2 -12 -14 -26 -27 -21 -17 -25 -27 -19 -45 10 -33
66 -52 172 -58 89 -6 93 -7 93 -29 0 -24 -1 -24 -120 -24 -98 0 -122 -3 -126
-15 -4 -8 -1 -22 6 -30 11 -13 64 -15 355 -15 l343 0 6 163 c4 89 10 263 14
387 l7 225 58 -3 c31 -2 57 0 57 5 0 5 -14 25 -31 46 -47 57 -75 49 -103 -29
-16 -45 -16 -44 -36 79 -30 189 -96 307 -172 307 -53 0 -70 -25 -69 -105 l0
-66 -68 88 c-78 101 -174 197 -228 230 -44 27 -95 30 -117 7z"/>
<path d="M7559 2758 c-4 -16 -7 -58 -14 -200 l-7 -168 1190 0 1190 0 2 168 c0
93 -2 176 -6 185 -6 16 -91 17 -1180 17 -646 0 -1174 -1 -1175 -2z"/>
<path d="M13305 2690 c-3 -5 -31 -10 -62 -10 -44 0 -68 -7 -122 -35 -77 -42
-128 -81 -118 -91 10 -11 354 27 372 40 13 9 14 17 4 46 -7 19 -16 41 -22 48
-11 14 -43 16 -52 2z"/>
<path d="M14009 2473 c-5 -16 -25 -42 -44 -59 -38 -35 -63 -104 -72 -196 -7
-66 1 -72 44 -30 57 54 193 239 193 261 0 16 -61 51 -88 51 -15 0 -26 -9 -33
-27z"/>
<path d="M5750 2235 c-25 -13 -61 -40 -80 -61 -42 -43 -107 -89 -155 -110
l-36 -15 27 -35 c30 -39 20 -42 121 36 82 63 196 177 191 191 -7 21 -21 19
-68 -6z"/>
<path d="M6264 2214 c3 -8 2 -12 -4 -9 -6 3 -10 -2 -10 -13 0 -25 -35 -69 -74
-93 l-31 -19 108 0 107 0 0 75 0 75 -51 0 c-42 0 -50 -3 -45 -16z"/>
<path d="M5238 2083 c7 -3 16 -2 19 1 4 3 -2 6 -13 5 -11 0 -14 -3 -6 -6z"/>
<path d="M5086 1977 c-15 -57 -10 -64 55 -71 34 -3 96 -6 138 -5 254 2 247 68
-8 73 -69 2 -138 8 -152 14 -24 9 -28 8 -33 -11z"/>
<path d="M6817 1873 c-3 -10 -8 -34 -11 -54 l-6 -36 82 -6 c167 -13 328 -6
328 15 0 5 -39 28 -87 51 -67 31 -98 40 -128 38 -67 -5 -119 -4 -147 4 -20 5
-27 3 -31 -12z"/>
<path d="M7336 1873 c-3 -10 -8 -34 -11 -54 l-7 -37 147 -7 c133 -7 251 -2
264 10 10 10 -18 27 -109 66 -90 39 -94 40 -142 28 -38 -10 -56 -10 -81 -1
-45 16 -55 15 -61 -5z"/>
</g>
</svg>
