<?xml version="1.0" standalone="no"?>
<!DOCTYPE svg PUBLIC "-//W3C//DTD SVG 20010904//EN"
 "http://www.w3.org/TR/2001/REC-SVG-20010904/DTD/svg10.dtd">
<svg version="1.0" xmlns="http://www.w3.org/2000/svg"
 width="1380.000000pt" height="1380.000000pt" viewBox="0 0 1380.000000 1380.000000"
 preserveAspectRatio="xMidYMid meet">

<g transform="translate(0.000000,1380.000000) scale(0.100000,-0.100000)"
fill="#000000" stroke="none">
<path d="M7715 10985 c-49 -40 -112 -96 -139 -124 -49 -50 -49 -51 -31 -71 17
-19 19 -19 37 -3 13 11 32 16 58 14 59 -4 84 26 76 89 -6 48 -6 49 35 82 38
31 79 89 62 87 -5 0 -48 -33 -98 -74z"/>
<path d="M9785 10853 c-216 -17 -465 -54 -636 -94 l-91 -21 97 -39 c352 -142
865 -481 1190 -787 73 -69 157 -137 169 -137 6 0 11 -7 11 -17 0 -22 113 -130
127 -122 6 4 8 3 5 -4 -4 -5 5 -21 20 -34 16 -13 59 -58 97 -101 44 -49 73
-74 79 -68 5 5 6 15 2 21 -6 9 -9 9 -15 0 -5 -8 -10 -8 -14 -2 -3 6 8 15 24
21 17 5 30 15 30 20 0 12 -51 -7 -62 -24 -9 -11 -9 -10 -12 27 -2 21 0 25 9
18 9 -8 14 -6 19 5 3 8 1 15 -5 15 -6 0 -8 4 -4 9 3 5 16 8 30 5 20 -3 26 1
31 21 4 14 4 29 0 32 -3 4 -6 -4 -6 -17 0 -23 0 -23 -15 -4 -18 24 -19 35 -3
31 7 -1 14 7 16 18 2 17 9 20 52 17 28 -2 50 0 50 6 0 8 10 22 50 69 5 7 10
19 10 26 0 8 9 17 20 20 11 3 20 12 20 21 0 9 8 16 20 16 13 0 20 7 20 20 0
17 7 20 40 20 38 0 40 2 40 30 0 20 5 30 15 30 8 0 19 9 25 20 6 11 17 20 25
20 8 0 15 5 15 10 0 6 11 10 24 10 18 0 27 8 35 30 17 52 89 128 137 146 40
15 44 20 44 50 0 23 5 34 15 34 8 0 19 9 25 20 6 11 17 20 25 20 8 0 15 5 15
10 0 6 18 10 40 10 22 0 40 5 40 11 0 14 55 69 69 69 6 0 11 5 11 11 0 6 14
24 30 41 17 16 30 37 31 46 1 9 7 -1 14 -23 19 -57 18 -24 -1 43 -19 68 -27
77 -49 64 -12 -6 -14 -11 -6 -16 6 -4 11 -2 11 3 0 6 5 11 11 11 6 0 9 -6 6
-14 -3 -8 -1 -16 5 -18 6 -2 8 -16 3 -36 -3 -18 -10 -30 -15 -27 -5 3 -11 1
-15 -5 -3 -5 -14 -10 -23 -9 -12 0 -11 3 6 9 21 9 31 30 13 30 -5 0 -7 10 -4
23 4 17 3 19 -6 7 -8 -12 -10 -9 -7 13 1 15 6 30 9 34 4 3 7 15 7 25 0 17 -10
21 -52 21 -10 0 -15 4 -11 10 4 6 -2 8 -15 5 -12 -4 -20 -3 -17 1 12 20 -564
161 -666 164 -32 1 -52 5 -45 9 6 5 7 8 1 8 -6 0 -73 9 -150 20 -255 35 -478
50 -745 48 -140 -1 -273 -3 -295 -5z m1618 -170 c-7 -2 -19 -2 -25 0 -7 3 -2
5 12 5 14 0 19 -2 13 -5z m82 -23 c3 -6 -1 -7 -9 -4 -18 7 -21 14 -7 14 6 0
13 -4 16 -10z m222 -226 c-3 -3 -12 -4 -19 -1 -8 3 -5 6 6 6 11 1 17 -2 13 -5z
m-1091 -736 l19 -23 -25 20 c-14 11 -27 21 -29 22 -2 2 0 3 6 3 5 0 18 -10 29
-22z m226 -70 c-9 -9 -15 -9 -24 0 -9 9 -7 12 12 12 19 0 21 -3 12 -12z m-149
-15 c-3 -8 -2 -13 3 -12 24 4 44 -2 39 -11 -5 -8 -11 -7 -21 1 -8 6 -14 8 -14
4 0 -4 -7 -2 -15 5 -19 16 -19 27 -1 27 8 0 12 -6 9 -14z m135 -44 c14 0 14
-2 2 -6 -8 -4 -21 -13 -28 -22 -12 -14 -13 -14 -8 2 3 10 6 26 7 35 0 11 2 12
6 5 2 -7 12 -13 21 -14z"/>
<path d="M5172 10394 c-52 -13 -172 -69 -216 -99 -60 -42 -138 -135 -201 -241
-107 -179 -172 -216 -342 -195 -126 17 -222 -2 -356 -68 -124 -60 -161 -71
-254 -71 -53 0 -99 9 -180 34 -59 18 -123 36 -140 39 l-33 7 0 -134 c0 -130
-1 -134 -22 -140 -13 -3 -26 -6 -30 -6 -5 0 -8 63 -8 140 l0 140 -48 0 c-120
0 -313 -84 -408 -177 -100 -99 -125 -192 -83 -309 17 -45 22 -84 23 -164 1
-102 0 -109 -49 -245 l-50 -140 1 -150 c0 -134 3 -158 27 -230 55 -166 155
-286 303 -362 126 -65 251 -96 434 -108 246 -16 474 49 707 201 261 170 424
315 591 526 l52 66 -10 48 c-6 26 -20 69 -31 95 l-21 47 -106 -108 c-147 -148
-282 -233 -459 -287 -79 -24 -104 -27 -248 -27 -137 -1 -172 2 -245 22 -327
89 -516 349 -497 682 3 52 8 103 12 112 4 10 28 23 53 30 44 13 47 16 52 53 4
29 11 43 30 52 25 12 25 12 28 -41 3 -52 6 -56 67 -115 173 -166 395 -177 662
-34 152 82 238 146 348 258 61 61 140 133 177 159 79 56 260 143 376 181 81
26 122 30 62 5 -68 -28 -20 -40 165 -40 177 0 375 36 375 69 0 15 -55 33 -115
38 -135 10 -139 24 -14 46 51 9 94 18 96 21 3 2 4 38 4 80 0 61 -6 87 -27 132
-46 98 -148 180 -260 209 -71 18 -122 18 -192 -1z"/>
<path d="M11846 10375 c-9 -25 -7 -43 3 -26 6 9 11 -2 16 -35 8 -57 33 -156
34 -134 1 17 -38 202 -43 208 -2 1 -6 -4 -10 -13z"/>
<path d="M11902 10140 c0 -14 2 -19 5 -12 2 6 2 18 0 25 -3 6 -5 1 -5 -13z"/>
<path d="M11931 10001 c0 -7 -20 -52 -44 -100 -24 -47 -49 -102 -55 -121 -22
-61 -153 -292 -231 -405 -41 -60 -78 -112 -81 -115 -3 -3 -21 -25 -40 -50 -19
-24 -83 -94 -142 -155 -59 -60 -108 -113 -108 -117 0 -4 39 -63 88 -131 200
-286 383 -613 453 -809 7 -21 17 -38 21 -38 12 0 10 14 -7 36 -8 10 -14 26
-14 34 0 8 7 2 16 -15 18 -33 28 -89 14 -80 -5 3 -7 -4 -4 -15 3 -11 10 -23
15 -26 6 -4 8 3 3 17 -5 19 -4 21 4 9 6 -8 11 -24 12 -35 1 -17 2 -16 9 5 11
34 11 60 0 35 -5 -11 -9 -15 -9 -8 -1 6 -4 18 -7 27 -4 11 -1 14 14 11 17 -3
23 6 37 65 9 38 14 74 9 81 -4 7 -3 9 3 6 13 -8 56 188 57 260 1 28 4 46 9 40
4 -7 7 1 7 18 0 17 6 75 14 130 46 323 46 752 0 1165 -17 148 -41 306 -43 281z
m36 -1408 c-3 -10 -5 -4 -5 12 0 17 2 24 5 18 2 -7 2 -21 0 -30z m-16 -109
c-5 -16 -10 -21 -10 -12 -1 18 10 51 15 45 2 -1 -1 -16 -5 -33z m-213 -309
c-3 -3 -9 2 -12 12 -6 14 -5 15 5 6 7 -7 10 -15 7 -18z m-18 -5 c0 -5 -2 -10
-4 -10 -3 0 -8 5 -11 10 -3 6 -1 10 4 10 6 0 11 -4 11 -10z m136 -161 c3 -6 1
-16 -6 -22 -10 -9 -11 -9 -5 2 4 8 2 17 -6 22 -9 6 -10 9 -2 9 6 0 15 -5 19
-11z"/>
<path d="M6289 9463 c-13 -16 -12 -17 4 -4 9 7 17 15 17 17 0 8 -8 3 -21 -13z"/>
<path d="M10860 9415 c-8 -9 -8 -15 -2 -15 12 0 26 19 19 26 -2 2 -10 -2 -17
-11z"/>
<path d="M6173 9385 c0 -8 4 -12 9 -9 5 3 6 10 3 15 -9 13 -12 11 -12 -6z"/>
<path d="M10900 9361 c0 -5 5 -13 10 -16 6 -3 10 -2 10 4 0 5 -4 13 -10 16 -5
3 -10 2 -10 -4z"/>
<path d="M8855 9269 c-390 -52 -723 -307 -865 -661 -56 -141 -71 -219 -77
-393 -6 -187 8 -291 62 -452 164 -490 585 -855 1084 -938 148 -25 360 -17 496
19 400 104 679 397 783 821 22 89 24 398 3 490 -125 562 -561 997 -1103 1100
-104 20 -292 27 -383 14z"/>
<path d="M6651 8915 c-63 -36 -150 -88 -193 -116 -71 -47 -78 -55 -78 -84 0
-18 -12 -54 -26 -81 -66 -124 -172 -208 -414 -329 -159 -79 -256 -144 -333
-223 -71 -72 -98 -108 -149 -202 -22 -41 -59 -103 -81 -138 -23 -37 -36 -67
-31 -72 5 -5 44 -20 88 -35 86 -29 219 -36 307 -16 63 14 210 59 231 71 9 5
54 19 100 31 124 34 283 31 398 -6 186 -59 322 -160 382 -282 27 -55 31 -75
31 -136 -1 -40 -8 -94 -16 -122 -8 -27 -31 -106 -51 -175 -55 -187 -69 -294
-63 -485 6 -201 35 -349 74 -381 21 -18 23 -25 14 -42 -6 -11 -20 -23 -31 -27
-45 -14 -60 -52 -60 -149 0 -108 14 -212 30 -231 17 -21 43 -4 63 42 9 21 30
101 48 178 17 77 36 145 41 151 5 7 17 10 27 7 12 -3 28 11 56 53 183 277 318
565 395 846 57 208 75 454 45 629 -33 201 -102 336 -245 479 -196 197 -411
306 -752 384 l-28 6 93 143 c51 78 127 189 168 247 90 126 92 130 82 130 -4 0
-59 -29 -122 -65z"/>
<path d="M3398 7280 c-125 -110 -113 -295 25 -384 29 -19 290 -166 582 -327
340 -188 556 -301 605 -317 62 -21 96 -25 196 -26 l121 -1 226 75 227 75 14
41 14 41 -42 -13 c-22 -7 -95 -31 -161 -54 -156 -53 -238 -65 -353 -52 -126
15 -173 35 -440 182 -130 73 -264 147 -297 165 -398 218 -556 307 -590 331
-77 56 -117 185 -85 270 6 15 9 28 7 31 -2 2 -24 -15 -49 -37z"/>
<path d="M4295 7029 c-11 -17 0 -20 21 -4 17 13 17 14 2 15 -9 0 -20 -5 -23
-11z"/>
<path d="M4195 7021 c-6 -5 -23 -11 -40 -14 -16 -2 1 -5 38 -6 51 -1 68 2 65
12 -6 15 -50 21 -63 8z"/>
<path d="M5605 5920 c-33 -4 -80 -13 -105 -19 -85 -24 -398 -152 -415 -171
-16 -18 -15 -18 24 -9 200 45 627 -222 1026 -641 16 -17 31 -26 33 -20 2 6 -3
17 -11 23 -18 15 -31 77 -16 77 6 0 7 -4 4 -10 -3 -5 -1 -10 4 -10 6 0 11 5
11 10 0 6 9 10 20 10 12 0 20 7 20 16 0 9 9 18 19 21 12 3 21 15 23 31 2 22
13 31 56 48 64 26 104 58 96 79 -4 9 1 18 12 22 23 10 32 38 10 30 -10 -4 -13
-1 -9 9 7 20 17 18 45 -10 13 -14 29 -22 35 -18 7 5 -12 32 -50 73 -65 69
-175 192 -216 241 -37 43 -143 115 -226 154 -119 55 -265 79 -390 64z"/>
<path d="M5214 5493 c-53 -58 -53 -142 2 -278 28 -72 109 -221 124 -230 6 -4
56 5 111 19 56 14 112 26 124 26 33 0 59 -34 51 -66 -9 -34 -54 -99 -95 -138
-35 -33 -38 -50 -16 -73 8 -8 12 -19 9 -25 -4 -7 -2 -8 4 -4 14 8 46 -39 37
-54 -11 -18 -14 -51 -4 -45 5 4 7 10 4 14 -2 5 1 15 8 24 11 15 17 11 55 -28
24 -25 40 -45 35 -45 -4 0 7 -9 25 -20 18 -11 30 -24 27 -29 -7 -13 41 1 163
48 115 44 115 44 54 -47 -44 -65 -102 -177 -102 -195 1 -10 108 -94 158 -122
9 -5 32 -20 49 -32 17 -13 36 -23 42 -23 6 0 11 -5 11 -11 0 -6 7 -8 16 -5 8
3 13 2 10 -2 -8 -13 105 -64 147 -67 34 -2 42 4 38 28 -1 4 9 6 21 4 13 -2 17
-2 11 0 -7 3 -13 13 -13 24 0 27 36 25 43 -3 7 -24 -6 -37 -38 -39 -17 -1 -16
-2 5 -9 25 -8 25 -8 -5 -11 -16 -1 -39 -1 -50 -1 -16 2 -17 0 -5 -8 21 -14
157 -43 172 -37 7 3 1 6 -14 6 -15 1 -30 6 -34 13 -5 7 -1 9 13 6 14 -4 20 -1
19 10 0 9 8 18 18 20 15 3 18 0 13 -17 -3 -12 -1 -19 3 -16 5 3 11 1 15 -5 9
-14 38 -12 61 5 18 13 18 14 -6 8 -24 -5 -24 -5 -6 9 18 14 18 15 1 22 -10 3
-24 1 -31 -5 -16 -13 -19 2 -4 17 7 7 -5 11 -36 13 -39 2 -46 -1 -41 -13 7
-18 -1 -20 -23 -6 -12 8 -12 10 -1 10 11 0 10 5 -4 20 -17 18 -17 20 -2 14 27
-10 19 4 -10 19 -16 8 -34 12 -40 10 -18 -7 -16 26 2 33 8 4 15 11 15 17 0 5
-8 3 -18 -6 -21 -19 -48 -22 -57 -7 -3 6 -14 10 -23 10 -15 0 -15 -2 -2 -11
12 -9 11 -9 -5 -4 -11 4 -36 11 -55 15 -50 11 -71 21 -64 31 7 12 -3 11 -25 0
-13 -7 -17 -5 -18 10 -2 23 -5 23 59 -2 75 -30 172 -41 205 -24 15 8 30 12 35
9 5 -3 8 -2 7 3 -1 4 5 25 14 45 21 46 21 87 2 163 -79 301 -471 760 -835 976
-100 59 -189 89 -266 89 -57 0 -68 -3 -90 -27z m726 -1130 c0 -2 -6 -1 -12 3
-7 4 3 -8 22 -25 33 -30 33 -32 10 -27 -14 3 -19 3 -12 0 6 -3 9 -10 6 -16 -4
-6 2 -8 17 -3 19 5 21 4 9 -5 -12 -8 -9 -9 14 -6 16 3 31 8 35 12 3 4 -2 4
-12 1 -12 -5 -20 -1 -24 11 -4 9 -14 22 -22 29 -35 27 4 11 45 -19 45 -32 56
-45 29 -34 -8 3 -15 1 -15 -4 0 -6 -3 -9 -7 -9 -20 3 -26 -2 -13 -11 11 -7 11
-10 2 -10 -7 0 -10 -5 -6 -12 4 -7 3 -8 -5 -4 -6 4 -9 11 -6 16 3 5 -8 16 -25
25 -29 15 -34 25 -31 53 2 8 -5 12 -16 10 -13 -2 -17 -11 -15 -28 2 -14 0 -21
-4 -17 -11 11 -13 56 -2 63 14 9 9 23 -14 34 -21 10 -22 10 -5 -3 10 -9 14
-18 9 -21 -6 -3 -13 1 -16 10 -3 8 -11 12 -17 8 -8 -4 -8 0 0 15 l12 21 34
-26 c19 -15 35 -28 35 -31z m31 -110 c13 -16 12 -17 -3 -4 -10 7 -18 15 -18
17 0 8 8 3 21 -13z m269 -143 c8 -5 11 -10 5 -10 -5 0 -17 5 -25 10 -8 5 -10
10 -5 10 6 0 17 -5 25 -10z m271 -33 c-6 -8 -7 -18 -3 -22 4 -5 -1 -5 -11 -2
-10 4 -21 7 -25 7 -9 0 32 29 42 30 5 0 3 -6 -3 -13z m-124 -3 c-3 -3 -12 -4
-19 -1 -8 3 -5 6 6 6 11 1 17 -2 13 -5z"/>
<path d="M6500 5374 c0 -3 6 -12 14 -20 19 -18 27 -18 20 0 -5 14 -34 31 -34
20z"/>
<path d="M6185 5030 c3 -5 11 -10 16 -10 6 0 7 5 4 10 -3 6 -11 10 -16 10 -6
0 -7 -4 -4 -10z"/>
<path d="M5236 4977 c3 -10 9 -15 12 -12 3 3 0 11 -7 18 -10 9 -11 8 -5 -6z"/>
<path d="M8646 4924 c-15 -9 -94 -45 -175 -81 -388 -173 -803 -336 -1061 -419
-63 -20 -121 -39 -128 -43 -13 -6 -116 -251 -162 -383 -42 -122 -43 -294 -1
-422 11 -33 90 -205 177 -381 86 -176 210 -430 276 -565 124 -255 154 -299
223 -331 50 -23 142 -25 193 -3 38 15 96 65 113 96 8 16 7 17 -16 8 -80 -30
-208 8 -261 77 -14 18 -48 82 -76 141 -28 59 -84 176 -124 260 -42 87 -71 160
-68 170 4 12 3 13 -3 4 -7 -9 -29 29 -76 127 -62 130 -86 191 -52 131 18 -32
20 -5 3 33 -14 30 -34 37 -24 10 5 -15 4 -15 -9 1 -18 24 -19 33 -3 42 6 4 16
0 23 -9 7 -9 15 -13 20 -9 4 4 4 -4 0 -18 -7 -23 -7 -23 9 -7 24 23 40 21 62
-8 18 -24 64 -35 64 -15 0 6 7 10 15 10 10 0 15 10 15 29 0 25 -4 30 -27 33
l-28 3 28 26 c15 15 27 31 27 38 0 6 5 11 11 11 7 0 23 12 38 28 l26 27 5 -43
c5 -41 6 -42 25 -28 11 9 28 16 38 16 13 0 17 8 17 36 0 19 6 42 13 49 24 27
33 40 52 71 11 21 32 36 57 44 21 7 38 19 38 25 0 7 8 15 18 19 21 7 47 24 80
54 14 12 33 22 43 22 15 0 19 8 19 40 0 34 -3 40 -21 40 -25 0 -22 33 4 38 12
2 17 -3 17 -17 0 -37 34 -25 50 17 8 20 14 39 15 42 2 17 25 37 59 53 31 14
36 21 25 28 -8 5 -12 9 -9 10 60 11 105 34 102 52 -2 9 -10 17 -18 17 -8 0
-14 5 -14 10 0 6 7 10 15 10 8 0 15 -4 15 -10 0 -18 21 -10 51 19 32 33 37 51
14 51 -14 0 -13 3 2 25 21 28 33 32 33 10 0 -8 -4 -15 -10 -15 -5 0 -10 -4
-10 -10 0 -5 14 -10 30 -10 18 0 30 5 30 13 0 7 23 33 50 57 28 24 50 50 50
57 0 8 14 13 39 13 32 0 40 4 44 22 8 27 -7 37 -53 38 l-35 1 38 16 c44 18 67
6 67 -33 0 -17 6 -24 20 -24 15 0 20 7 20 24 0 14 4 27 9 30 10 7 36 85 45
139 8 41 -6 155 -30 252 -38 154 -32 144 -78 119z m-206 -654 c0 -5 -4 -10
-10 -10 -5 0 -10 5 -10 10 0 6 5 10 10 10 6 0 10 -4 10 -10z m-647 -607 c-7
-3 -13 -13 -13 -24 0 -10 -4 -19 -10 -19 -5 0 -10 -13 -10 -30 0 -27 -3 -30
-30 -30 -28 0 -30 2 -30 40 0 38 2 40 30 40 19 0 30 5 30 14 0 8 8 16 18 18
20 5 32 -3 15 -9z m-478 -102 c3 -5 2 -12 -3 -15 -5 -3 -9 1 -9 9 0 17 3 19
12 6z m40 -92 c10 -30 0 -33 -13 -4 -6 14 -7 25 -2 25 5 0 12 -9 15 -21z m32
-45 c-3 -3 -12 -4 -19 -1 -8 3 -5 6 6 6 11 1 17 -2 13 -5z m138 -44 c8 -13 -5
-13 -25 0 -13 8 -13 10 2 10 9 0 20 -4 23 -10z"/>
<path d="M5451 4726 c-8 -10 -8 -16 2 -24 10 -9 13 -6 13 13 0 29 0 29 -15 11z"/>
<path d="M5500 4652 c6 -13 14 -21 18 -18 3 4 -2 14 -12 24 -18 16 -18 16 -6
-6z"/>
<path d="M5584 4564 c43 -46 63 -60 78 -56 14 3 16 7 8 12 -7 4 -10 13 -6 19
5 7 1 8 -11 4 -15 -6 -16 -4 -6 8 10 13 10 16 -1 16 -15 0 -16 -14 -2 -35 7
-11 4 -12 -12 -3 -12 6 -25 17 -29 24 -5 6 -24 25 -43 42 -19 16 -9 2 24 -31z"/>
<path d="M5584 4592 c4 -3 14 -7 22 -8 9 -1 13 0 10 4 -4 3 -14 7 -22 8 -9 1
-13 0 -10 -4z"/>
<path d="M5677 4550 c3 -11 9 -22 13 -25 5 -3 6 4 3 15 -3 11 -9 22 -13 25 -5
3 -6 -4 -3 -15z"/>
<path d="M8763 4515 c0 -22 2 -30 4 -17 2 12 2 30 0 40 -3 9 -5 -1 -4 -23z"/>
<path d="M8774 4265 c0 -110 2 -156 3 -103 2 53 2 143 0 200 -1 57 -3 13 -3
-97z"/>
<path d="M8711 4384 c0 -11 3 -14 6 -6 3 7 2 16 -1 19 -3 4 -6 -2 -5 -13z"/>
<path d="M8741 4384 c0 -11 3 -14 6 -6 3 7 2 16 -1 19 -3 4 -6 -2 -5 -13z"/>
<path d="M8713 4320 c0 -25 2 -35 4 -22 2 12 2 32 0 45 -2 12 -4 2 -4 -23z"/>
<path d="M6370 4196 c0 -2 7 -7 16 -10 8 -3 12 -2 9 4 -6 10 -25 14 -25 6z"/>
<path d="M6546 4111 c-3 -5 1 -11 9 -15 8 -3 15 -1 15 4 0 13 -18 22 -24 11z"/>
<path d="M8761 3984 c0 -11 3 -14 6 -6 3 7 2 16 -1 19 -3 4 -6 -2 -5 -13z"/>
<path d="M8751 3894 c0 -11 3 -14 6 -6 3 7 2 16 -1 19 -3 4 -6 -2 -5 -13z"/>
<path d="M8741 3834 c0 -11 3 -14 6 -6 3 7 2 16 -1 19 -3 4 -6 -2 -5 -13z"/>
<path d="M7460 3330 c0 -16 5 -30 11 -30 6 0 3 -7 -5 -16 -20 -19 -20 -28 -2
-43 12 -10 15 -8 19 11 4 22 4 22 6 -2 0 -15 -4 -31 -11 -38 -9 -9 -9 -12 -1
-12 7 0 15 9 18 20 3 11 11 20 16 20 5 0 9 14 9 30 0 17 -4 30 -10 30 -5 0
-10 8 -10 18 0 9 -9 23 -20 30 -18 11 -20 10 -20 -18z"/>
</g>
</svg>
